<?xml version="1.0" encoding="utf-8"?>
<!-- Generator: Adobe Illustrator 27.6.1, SVG Export Plug-In . SVG Version: 6.00 Build 0)  -->
<svg version="1.1" id="Layer_1" xmlns="http://www.w3.org/2000/svg" xmlns:xlink="http://www.w3.org/1999/xlink" x="0px" y="0px"
	 viewBox="0 0 324.3 66.1" style="enable-background:new 0 0 324.3 66.1;" xml:space="preserve">
<style type="text/css">
	.st0{fill:#919191;}
	.st1{fill:url(#SVGID_1_);}
	.st2{fill:url(#SVGID_00000000936545282143959190000005678113484856372408_);}
	.st3{fill:url(#SVGID_00000125562766915527543450000001645990422672969659_);}
	.st4{fill:url(#SVGID_00000157302154165623204080000005927397460994271409_);}
	.st5{fill:url(#SVGID_00000101072316718504130240000016853923816664293560_);}
	.st6{font-family:'Montserrat-Medium';}
	.st7{font-size:10.0356px;}
</style>
<g>
	<circle class="st0" cx="31.7" cy="8.9" r="6.8"/>
	<linearGradient id="SVGID_1_" gradientUnits="userSpaceOnUse" x1="3.2723" y1="25.8826" x2="29.9355" y2="25.8826">
		<stop  offset="0" style="stop-color:#F4CA16"/>
		<stop  offset="1" style="stop-color:#F3DF05"/>
	</linearGradient>
	<path class="st1" d="M29.9,19.5L8.4,41.1l-2.4-2.4c-3.5-3.5-3.5-9.2,0-12.8l15.2-15.2c0.2,1.4,0.8,2.8,1.6,4
		c1.5,2.4,3.9,4.1,6.7,4.7C29.6,19.4,29.8,19.5,29.9,19.5z"/>
	
		<linearGradient id="SVGID_00000142141018568529258630000000496423729866719933_" gradientUnits="userSpaceOnUse" x1="44.7863" y1="24.9443" x2="37.7202" y2="65.0186">
		<stop  offset="0" style="stop-color:#D3B015"/>
		<stop  offset="1" style="stop-color:#F3DF05"/>
	</linearGradient>
	<path style="fill:url(#SVGID_00000142141018568529258630000000496423729866719933_);" d="M59.3,35.8C59.3,35.8,59.3,35.8,59.3,35.8
		c-0.1,0.3-0.2,0.5-0.3,0.7c0,0,0,0,0,0c-0.4,0.8-1,1.5-1.6,2.2l-2.4,2.4L32.5,63.6c-0.4,0.4-1.2,0.4-1.6,0l-8-8l21.7-21.7l1.5-1.5
		c0.3-0.3,0.5-0.6,0.5-1c0.2-1.1-0.4-2.2-1.5-2.4c-0.7-0.2-1.4,0.1-1.9,0.5l0,0c0.5-0.4,0.9-0.8,1.2-1.1c0,0,0,0,0.1-0.1
		c0.1-0.1,0.2-0.2,0.3-0.2c0,0,0,0,0,0c0.2-0.1,0.3-0.2,0.5-0.4c1.4-1,3.1-1.5,5-1.6c2.6-0.1,4.9,0.9,6.7,2.6
		c0.1,0.1,0.2,0.2,0.3,0.3h0c0,0,0,0,0,0c0.1,0.1,0.2,0.2,0.3,0.4c0.2,0.2,0.3,0.4,0.6,0.7c0.1,0.1,0.1,0.2,0.2,0.3
		c0.1,0.1,0.1,0.2,0.2,0.3c0.1,0.1,0.1,0.2,0.2,0.3c0,0,0,0,0,0c0,0,0,0.1,0.1,0.1c0,0.1,0.1,0.2,0.1,0.2c0,0,0,0,0,0
		c0,0.1,0.1,0.2,0.1,0.2C59.6,33,59.8,34.4,59.3,35.8z"/>
	
		<linearGradient id="SVGID_00000054252689514689405700000007092839815231205543_" gradientUnits="userSpaceOnUse" x1="11.2012" y1="32.2971" x2="60.0341" y2="32.2971">
		<stop  offset="0" style="stop-color:#F4CA16"/>
		<stop  offset="1" style="stop-color:#F3DF05"/>
	</linearGradient>
	<path style="fill:url(#SVGID_00000054252689514689405700000007092839815231205543_);" d="M59.3,35.8c0.5-1.4,0.2-2.8-0.2-3.9
		c0-0.1-0.1-0.2-0.1-0.2c0,0,0,0,0,0c0-0.1-0.1-0.2-0.1-0.2c0,0,0-0.1-0.1-0.1c0,0,0,0,0,0c-0.1-0.1-0.1-0.2-0.2-0.3
		c-0.1-0.1-0.1-0.2-0.2-0.3c-0.1-0.1-0.1-0.2-0.2-0.3c-0.2-0.3-0.4-0.6-0.6-0.7c-0.1-0.1-0.2-0.2-0.3-0.4c0,0,0,0,0,0h0
		c-0.1-0.1-0.2-0.2-0.3-0.3c-1.7-1.7-4.1-2.7-6.7-2.6c-1.8,0-3.5,0.6-5,1.6c-0.2,0.1-0.3,0.2-0.5,0.4c0,0,0,0,0,0
		c-0.1,0.1-0.2,0.2-0.3,0.2c0,0,0,0-0.1,0.1c-0.3,0.3-0.7,0.7-1.2,1.1c0,0,0,0,0,0L26.4,46.4c-3.5,3.5-9.2,3.5-12.8,0l-2.4-2.4
		l23.2-23.2l2.4-2.4c3.5-3.5,9.1-3.5,12.7-0.1l0,0l0,0l2.5,2.5l2.8,2.8l0.8,0.8h0l1.7,1.7c0,0,0,0,0.1,0.1c2.8,2.9,3.3,7.1,1.6,10.5
		C59.1,36.3,59.2,36.1,59.3,35.8C59.3,35.8,59.3,35.8,59.3,35.8z"/>
	
		<linearGradient id="SVGID_00000039117901002788897440000006871415252539698842_" gradientUnits="userSpaceOnUse" x1="43.2017" y1="29.5174" x2="43.1765" y2="29.6602">
		<stop  offset="0" style="stop-color:#797A7A"/>
		<stop  offset="0.2141" style="stop-color:#858585"/>
		<stop  offset="0.6867" style="stop-color:#99999A"/>
		<stop  offset="1" style="stop-color:#A1A0A1"/>
	</linearGradient>
	<path style="fill:url(#SVGID_00000039117901002788897440000006871415252539698842_);" d="M43.1,29.6C43.1,29.6,43.1,29.6,43.1,29.6
		c0,0,0.1-0.1,0.1-0.1L43.1,29.6z"/>
</g>
<g>
	<path class="st0" d="M199.6,22.9c-3.4-0.4-4.7-1.1-4.7-2.4c0-1.6,1.6-2.5,4.3-2.5c2.4,0,4.3,1.2,5,2.3l0.3,0.4l4.3-2.2l-0.2-0.5
		c-1.6-3.2-4.9-4.9-9.5-4.9c-4.7,0-9.4,2.3-9.4,7.2c0,5.6,4.8,6.9,9.5,7.5c4.4,0.5,4.9,1.9,4.9,2.9c0,2.7-3.7,2.9-4.8,2.9
		c-2.9,0-5.2-1.2-6-3.3l-0.2-0.5l-4.5,2.4l0.2,0.4c1.6,4,5.1,6,10.5,6c4.9,0,10.2-2.1,10.2-7.9C209.4,24.9,204.7,23.5,199.6,22.9"/>
	<polygon class="st0" points="228.3,23.3 221.1,13.3 215,13.3 215,38.5 220.6,38.5 220.6,22.1 227.5,31.5 228.9,31.5 236,22.1 
		236,38.5 241.6,38.5 241.6,13.3 235.6,13.3 	"/>
	<path class="st0" d="M255.4,13.3l-11.3,25.2h6.1l2.1-4.5h11.9l2,4.5h6.2l-11.3-25.2H255.4z M261.9,28.6h-7.3l3.6-8.4L261.9,28.6z"
		/>
	<polygon class="st0" points="300.1,13.3 300.1,18.5 307.7,18.5 307.7,38.5 313.3,38.5 313.3,18.5 321,18.5 321,13.3 	"/>
	<path class="st0" d="M298.5,38.5l-7.8-8.8c3.6-1.1,5.6-3.9,5.6-7.9c0-4.1-2.9-8.5-9.2-8.5c-1.9,0-3.8,0-5.7,0c-1.9,0-3.8,0-5.7,0
		h-0.5v25.2h5.6v-8.1h3.6l7,8.1H298.5z M290.7,22c0,1.6-0.9,3.3-3.6,3.3h-6.4v-6.6h6.4C289.8,18.6,290.7,20.4,290.7,22"/>
	<rect x="73.6" y="20.9" class="st0" width="5.6" height="17.6"/>
	<polygon class="st0" points="102.3,38.5 90.5,23.3 90.5,38.5 84.8,38.5 84.8,13.3 89.3,13.3 100.3,27.2 100.3,13.3 106,13.3 
		106,38.5 	"/>
	<polygon class="st0" points="109.7,18.5 117.3,18.5 117.3,38.5 123,38.5 123,18.5 130.6,18.5 130.6,13.3 109.7,13.3 	"/>
	<polygon class="st0" points="134.3,38.5 153.4,38.5 153.4,32.9 139.9,32.9 139.9,28.6 153,28.6 153,23.3 139.9,23.3 139.9,18.8 
		153.4,18.8 153.4,13.3 134.3,13.3 	"/>
	<path class="st0" d="M181.4,38.5l-7.8-8.8c3.6-1.1,5.6-3.9,5.6-7.9c0-4.1-2.9-8.5-9.2-8.5c-1.9,0-3.8,0-5.7,0c-1.9,0-3.8,0-5.7,0
		H158v25.2h5.6v-8.1h3.6l7,8.1H181.4z M173.6,22c0,1.6-0.9,3.3-3.6,3.3h-6.4v-6.6h6.4C172.6,18.6,173.6,20.4,173.6,22"/>
	
		<linearGradient id="SVGID_00000039829390475659095580000000288302156888203923_" gradientUnits="userSpaceOnUse" x1="73.6252" y1="16.0787" x2="79.2265" y2="16.0787">
		<stop  offset="0" style="stop-color:#F4CA16"/>
		<stop  offset="1" style="stop-color:#F3DF05"/>
	</linearGradient>
	
		<rect x="73.6" y="13.3" style="fill:url(#SVGID_00000039829390475659095580000000288302156888203923_);" width="5.6" height="5.6"/>
</g>
<text transform="matrix(1 0 0 1 73.155 52.8687)" class="st0 st6 st7">Center For IT Research And Development</text>
</svg>
